<svg width="100" height="101" viewBox="0 0 100 101" fill="none" xmlns="http://www.w3.org/2000/svg">
<rect width="100" height="100" transform="translate(0 0.705139)" fill="#EDF2F4"/>
<path d="M30.5511 77.2051V24.8415H51.2102C55.1648 24.8415 58.5398 25.5489 61.3352 26.9637C64.1477 28.3614 66.2869 30.3472 67.7528 32.921C69.2358 35.4779 69.9773 38.4864 69.9773 41.9466C69.9773 45.4239 69.2273 48.4154 67.7273 50.921C66.2273 53.4097 64.054 55.3188 61.2074 56.6483C58.3778 57.9779 54.9517 58.6426 50.929 58.6426H37.0966V49.7449H49.1392C51.2528 49.7449 53.0085 49.4551 54.4062 48.8756C55.804 48.296 56.8438 47.4267 57.5256 46.2676C58.2244 45.1085 58.5739 43.6682 58.5739 41.9466C58.5739 40.208 58.2244 38.7421 57.5256 37.5489C56.8438 36.3557 55.7955 35.4523 54.3807 34.8387C52.983 34.208 51.2188 33.8926 49.0881 33.8926H41.6222V77.2051H30.5511ZM58.8295 53.3756L71.8438 77.2051H59.6222L46.8892 53.3756H58.8295Z" fill="#D90429"/>
</svg>
