<svg width="502" height="100" viewBox="0 0 502 100" fill="none" xmlns="http://www.w3.org/2000/svg">
<rect x="0.804932" width="269.394" height="99.999" rx="5" fill="#D90429"/>
<path d="M31.3556 76.5V24.1364H52.0147C55.9692 24.1364 59.3442 24.8437 62.1397 26.2585C64.9522 27.6562 67.0914 29.642 68.5573 32.2159C70.0402 34.7727 70.7817 37.7812 70.7817 41.2415C70.7817 44.7187 70.0317 47.7102 68.5317 50.2159C67.0317 52.7045 64.8584 54.6136 62.0118 55.9432C59.1823 57.2727 55.7561 57.9375 51.7334 57.9375H37.901V49.0398H49.9436C52.0573 49.0398 53.813 48.75 55.2107 48.1705C56.6084 47.5909 57.6482 46.7216 58.33 45.5625C59.0289 44.4034 59.3783 42.9631 59.3783 41.2415C59.3783 39.5028 59.0289 38.0369 58.33 36.8438C57.6482 35.6506 56.5999 34.7472 55.1851 34.1335C53.7874 33.5028 52.0232 33.1875 49.8925 33.1875H42.4266V76.5H31.3556ZM59.634 52.6705L72.6482 76.5H60.4266L47.6936 52.6705H59.634ZM94.442 77.267C90.4022 77.267 86.9249 76.4489 84.0101 74.8125C81.1124 73.1591 78.8795 70.8239 77.3113 67.8068C75.7431 64.7727 74.959 61.1847 74.959 57.0426C74.959 53.0028 75.7431 49.4574 77.3113 46.4062C78.8795 43.3551 81.0868 40.9773 83.9334 39.2727C86.7971 37.5682 90.155 36.7159 94.0073 36.7159C96.5982 36.7159 99.0101 37.1335 101.243 37.9688C103.493 38.7869 105.453 40.0227 107.124 41.6761C108.811 43.3295 110.124 45.4091 111.061 47.9148C111.999 50.4034 112.468 53.3182 112.468 56.6591V59.6506H79.3056V52.9006H102.215C102.215 51.3324 101.874 49.9432 101.192 48.733C100.51 47.5227 99.5641 46.5767 98.3539 45.8949C97.1607 45.196 95.7715 44.8466 94.1863 44.8466C92.5329 44.8466 91.067 45.2301 89.7885 45.9972C88.5272 46.7472 87.5385 47.7614 86.8226 49.0398C86.1067 50.3011 85.7402 51.7074 85.7232 53.2585V59.6761C85.7232 61.6193 86.0812 63.2983 86.7971 64.7131C87.53 66.1278 88.5613 67.2188 89.8908 67.9858C91.2204 68.7528 92.7971 69.1364 94.6209 69.1364C95.8312 69.1364 96.9391 68.9659 97.9448 68.625C98.9505 68.2841 99.8113 67.7727 100.527 67.0909C101.243 66.4091 101.789 65.5739 102.164 64.5852L112.237 65.25C111.726 67.6705 110.678 69.7841 109.093 71.5909C107.524 73.3807 105.496 74.7784 103.007 75.7841C100.536 76.7727 97.6806 77.267 94.442 77.267ZM129.244 53.7955V76.5H118.351V37.2273H128.732V44.1562H129.192C130.062 41.8722 131.519 40.0653 133.565 38.7358C135.61 37.3892 138.09 36.7159 141.005 36.7159C143.732 36.7159 146.11 37.3125 148.138 38.5057C150.167 39.6989 151.744 41.4034 152.869 43.6193C153.994 45.8182 154.556 48.4432 154.556 51.4943V76.5H143.664V53.4375C143.681 51.0341 143.067 49.1591 141.823 47.8125C140.579 46.4489 138.866 45.767 136.684 45.767C135.218 45.767 133.922 46.0824 132.797 46.7131C131.69 47.3437 130.82 48.2642 130.19 49.4744C129.576 50.6676 129.261 52.108 129.244 53.7955ZM182.806 37.2273V45.4091H159.155V37.2273H182.806ZM164.524 27.8182H175.417V64.4318C175.417 65.4375 175.57 66.2216 175.877 66.7841C176.184 67.3295 176.61 67.7131 177.155 67.9347C177.718 68.1562 178.365 68.267 179.098 68.267C179.61 68.267 180.121 68.2244 180.632 68.1392C181.144 68.0369 181.536 67.9602 181.809 67.9091L183.522 76.0142C182.976 76.1847 182.209 76.3807 181.221 76.6023C180.232 76.8409 179.03 76.9858 177.615 77.0369C174.99 77.1392 172.689 76.7898 170.712 75.9886C168.752 75.1875 167.226 73.9432 166.135 72.2557C165.044 70.5682 164.507 68.4375 164.524 65.8636V27.8182ZM199.876 77.2415C197.37 77.2415 195.137 76.8068 193.177 75.9375C191.217 75.0511 189.666 73.7472 188.524 72.0256C187.399 70.2869 186.836 68.1222 186.836 65.5312C186.836 63.3494 187.237 61.517 188.038 60.0341C188.839 58.5511 189.93 57.358 191.31 56.4545C192.691 55.5511 194.259 54.8693 196.015 54.4091C197.788 53.9489 199.646 53.625 201.589 53.4375C203.873 53.1989 205.714 52.9773 207.112 52.7727C208.509 52.5511 209.524 52.2273 210.154 51.8011C210.785 51.375 211.1 50.7443 211.1 49.9091V49.7557C211.1 48.1364 210.589 46.8835 209.566 45.9972C208.56 45.1108 207.129 44.6676 205.271 44.6676C203.31 44.6676 201.751 45.1023 200.592 45.9716C199.433 46.8239 198.666 47.8977 198.291 49.1932L188.217 48.375C188.728 45.9886 189.734 43.9261 191.234 42.1875C192.734 40.4318 194.668 39.0852 197.038 38.1477C199.424 37.1932 202.185 36.7159 205.322 36.7159C207.504 36.7159 209.592 36.9716 211.586 37.483C213.597 37.9943 215.379 38.7869 216.93 39.8608C218.498 40.9347 219.734 42.3153 220.637 44.0028C221.541 45.6733 221.992 47.6761 221.992 50.0114V76.5H211.663V71.054H211.356C210.725 72.2812 209.881 73.3636 208.825 74.3011C207.768 75.2216 206.498 75.946 205.015 76.4744C203.532 76.9858 201.819 77.2415 199.876 77.2415ZM202.995 69.7244C204.597 69.7244 206.012 69.4091 207.239 68.7784C208.467 68.1307 209.43 67.2614 210.129 66.1705C210.827 65.0795 211.177 63.8437 211.177 62.4631V58.2955C210.836 58.517 210.367 58.7216 209.771 58.9091C209.191 59.0795 208.535 59.2415 207.802 59.3949C207.069 59.5312 206.336 59.6591 205.603 59.7784C204.87 59.8807 204.205 59.9744 203.609 60.0597C202.33 60.2472 201.214 60.5455 200.259 60.9545C199.305 61.3636 198.563 61.9176 198.035 62.6165C197.506 63.2983 197.242 64.1506 197.242 65.1733C197.242 66.6562 197.779 67.7898 198.853 68.5739C199.944 69.3409 201.325 69.7244 202.995 69.7244ZM240.111 24.1364V76.5H229.219V24.1364H240.111Z" fill="#EDF2F4"/>
<path d="M300.612 76.5L285.629 24.1364H297.723L306.39 60.5199H306.825L316.387 24.1364H326.743L336.279 60.5966H336.74L345.407 24.1364H357.501L342.518 76.5H331.728L321.757 42.2642H321.348L311.402 76.5H300.612ZM368.978 77.2415C366.472 77.2415 364.239 76.8068 362.279 75.9375C360.319 75.0511 358.768 73.7472 357.626 72.0256C356.501 70.2869 355.938 68.1222 355.938 65.5312C355.938 63.3494 356.339 61.517 357.14 60.0341C357.941 58.5511 359.032 57.358 360.413 56.4545C361.793 55.5511 363.362 54.8693 365.117 54.4091C366.89 53.9489 368.748 53.625 370.691 53.4375C372.975 53.1989 374.816 52.9773 376.214 52.7727C377.612 52.5511 378.626 52.2273 379.256 51.8011C379.887 51.375 380.203 50.7443 380.203 49.9091V49.7557C380.203 48.1364 379.691 46.8835 378.668 45.9972C377.663 45.1108 376.231 44.6676 374.373 44.6676C372.413 44.6676 370.853 45.1023 369.694 45.9716C368.535 46.8239 367.768 47.8977 367.393 49.1932L357.319 48.375C357.83 45.9886 358.836 43.9261 360.336 42.1875C361.836 40.4318 363.771 39.0852 366.14 38.1477C368.526 37.1932 371.288 36.7159 374.424 36.7159C376.606 36.7159 378.694 36.9716 380.688 37.483C382.7 37.9943 384.481 38.7869 386.032 39.8608C387.6 40.9347 388.836 42.3153 389.739 44.0028C390.643 45.6733 391.095 47.6761 391.095 50.0114V76.5H380.765V71.054H380.458C379.828 72.2812 378.984 73.3636 377.927 74.3011C376.87 75.2216 375.6 75.946 374.117 76.4744C372.634 76.9858 370.921 77.2415 368.978 77.2415ZM372.097 69.7244C373.7 69.7244 375.114 69.4091 376.342 68.7784C377.569 68.1307 378.532 67.2614 379.231 66.1705C379.93 65.0795 380.279 63.8437 380.279 62.4631V58.2955C379.938 58.517 379.47 58.7216 378.873 58.9091C378.293 59.0795 377.637 59.2415 376.904 59.3949C376.171 59.5312 375.438 59.6591 374.705 59.7784C373.972 59.8807 373.308 59.9744 372.711 60.0597C371.433 60.2472 370.316 60.5455 369.362 60.9545C368.407 61.3636 367.666 61.9176 367.137 62.6165C366.609 63.2983 366.345 64.1506 366.345 65.1733C366.345 66.6562 366.881 67.7898 367.955 68.5739C369.046 69.3409 370.427 69.7244 372.097 69.7244ZM409.213 24.1364V76.5H398.321V24.1364H409.213ZM427.606 24.1364V76.5H416.714V24.1364H427.606ZM453.005 77.267C448.965 77.267 445.488 76.4489 442.573 74.8125C439.675 73.1591 437.442 70.8239 435.874 67.8068C434.306 64.7727 433.522 61.1847 433.522 57.0426C433.522 53.0028 434.306 49.4574 435.874 46.4062C437.442 43.3551 439.65 40.9773 442.496 39.2727C445.36 37.5682 448.718 36.7159 452.57 36.7159C455.161 36.7159 457.573 37.1335 459.806 37.9688C462.056 38.7869 464.016 40.0227 465.687 41.6761C467.374 43.3295 468.687 45.4091 469.624 47.9148C470.562 50.4034 471.031 53.3182 471.031 56.6591V59.6506H437.869V52.9006H460.778C460.778 51.3324 460.437 49.9432 459.755 48.733C459.073 47.5227 458.127 46.5767 456.917 45.8949C455.724 45.196 454.334 44.8466 452.749 44.8466C451.096 44.8466 449.63 45.2301 448.352 45.9972C447.09 46.7472 446.102 47.7614 445.386 49.0398C444.67 50.3011 444.303 51.7074 444.286 53.2585V59.6761C444.286 61.6193 444.644 63.2983 445.36 64.7131C446.093 66.1278 447.124 67.2188 448.454 67.9858C449.783 68.7528 451.36 69.1364 453.184 69.1364C454.394 69.1364 455.502 68.9659 456.508 68.625C457.513 68.2841 458.374 67.7727 459.09 67.0909C459.806 66.4091 460.352 65.5739 460.727 64.5852L470.8 65.25C470.289 67.6705 469.241 69.7841 467.656 71.5909C466.087 73.3807 464.059 74.7784 461.57 75.7841C459.099 76.7727 456.244 77.267 453.005 77.267ZM497.804 37.2273V45.4091H474.153V37.2273H497.804ZM479.522 27.8182H490.414V64.4318C490.414 65.4375 490.568 66.2216 490.875 66.7841C491.182 67.3295 491.608 67.7131 492.153 67.9347C492.716 68.1562 493.363 68.267 494.096 68.267C494.608 68.267 495.119 68.2244 495.63 68.1392C496.142 68.0369 496.534 67.9602 496.807 67.9091L498.52 76.0142C497.974 76.1847 497.207 76.3807 496.218 76.6023C495.23 76.8409 494.028 76.9858 492.613 77.0369C489.988 77.1392 487.687 76.7898 485.71 75.9886C483.75 75.1875 482.224 73.9432 481.133 72.2557C480.042 70.5682 479.505 68.4375 479.522 65.8636V27.8182Z" fill="#2B2D42"/>
</svg>
