<svg width="101" height="101" viewBox="0 0 101 101" fill="none" xmlns="http://www.w3.org/2000/svg">
<rect x="0.804932" y="0.706116" width="99.999" height="99.999" rx="5" fill="#D90429"/>
<path d="M31.3556 77.2061V24.8425H52.0147C55.9692 24.8425 59.3442 25.5499 62.1397 26.9646C64.9522 28.3624 67.0914 30.3482 68.5573 32.922C70.0402 35.4788 70.7817 38.4874 70.7817 41.9476C70.7817 45.4249 70.0317 48.4163 68.5317 50.922C67.0317 53.4107 64.8584 55.3198 62.0118 56.6493C59.1823 57.9788 55.7561 58.6436 51.7334 58.6436H37.901V49.7459H49.9436C52.0573 49.7459 53.813 49.4561 55.2107 48.8766C56.6084 48.297 57.6482 47.4277 58.33 46.2686C59.0289 45.1095 59.3783 43.6692 59.3783 41.9476C59.3783 40.209 59.0289 38.743 58.33 37.5499C57.6482 36.3567 56.5999 35.4533 55.1851 34.8396C53.7874 34.209 52.0232 33.8936 49.8925 33.8936H42.4266V77.2061H31.3556ZM59.634 53.3766L72.6482 77.2061H60.4266L47.6936 53.3766H59.634Z" fill="#EDF2F4"/>
</svg>
